<svg xmlns="http://www.w3.org/2000/svg" width="46" height="46"><path fill-rule="evenodd" fill="#E8663C" d="M45.988 25.932v-5.885l-4.915-.393a18.31 18.31 0 00-.752-2.82l4.058-2.796-2.943-5.096-4.456 2.118a18.57 18.57 0 00-2.061-2.061l2.118-4.456L31.941 1.6l-2.797 4.058a18.31 18.31 0 00-2.82-.752L25.93-.009h-5.884l-.393 4.915c-.969.178-1.911.429-2.821.752l-2.796-4.057L8.94 4.543l2.118 4.456c-.741.632-1.43 1.32-2.062 2.061L4.541 8.943l-2.942 5.095 4.057 2.796c-.323.91-.574 1.852-.752 2.821l-4.916.393.001 5.884 4.915.394c.178.968.429 1.911.752 2.82L1.6 31.943l2.942 5.094 4.454-2.116c.633.74 1.322 1.429 2.063 2.061l-2.118 4.456 5.096 2.941 2.796-4.056c.909.322 1.851.574 2.82.752l.393 4.915h5.885l.393-4.915c.969-.178 1.911-.43 2.82-.753l2.797 4.057 5.096-2.941-2.118-4.457c.74-.632 1.429-1.32 2.061-2.061l4.456 2.117 2.943-5.095-4.058-2.796c.323-.91.574-1.852.752-2.82l4.915-.394zm-23 8.558c-6.351 0-11.5-5.149-11.5-11.5 0-6.352 5.149-11.5 11.5-11.5 6.352 0 11.5 5.148 11.5 11.5 0 6.351-5.148 11.5-11.5 11.5z"/></svg>